<?xml version="1.0" encoding="UTF-8" standalone="no"?>
<!DOCTYPE svg PUBLIC "-//W3C//DTD SVG 20010904//EN"
              "http://www.w3.org/TR/2001/REC-SVG-20010904/DTD/svg10.dtd">

<svg xmlns="http://www.w3.org/2000/svg"
     width="6.5in" height="1.85556in"
     viewBox="0 0 585 167">
  <path id="Imported Path"
        fill="none" stroke="black" stroke-width="1"
        d="M 469.28,18.46
           C 469.28,18.46 469.46,18.46 469.46,18.46
             469.46,18.46 469.46,18.25 469.46,18.25
             469.46,18.25 469.28,18.25 469.28,18.25
             469.28,18.25 469.28,18.46 469.28,18.46 Z
           M 537.08,81.39
           C 537.08,81.39 537.08,86.47 537.08,86.47
             537.08,86.47 535.92,86.47 535.92,86.47
             535.92,86.47 535.92,81.37 535.92,81.37
             535.92,81.37 537.08,81.39 537.08,81.39 Z
           M 528.78,81.39
           C 528.78,81.39 469.46,21.97 469.46,21.97
             469.46,21.97 469.46,18.25 469.46,18.25
             469.46,18.25 474.07,18.25 474.07,18.25
             474.07,18.25 537.08,81.39 537.08,81.39
             537.08,81.39 528.78,81.39 528.78,81.39 Z
           M 474.15,86.36
           C 474.15,86.36 477.25,86.32 477.25,86.32
             477.25,86.32 543.66,152.87 543.66,152.87
             543.66,152.87 550.61,152.87 550.61,152.87
             550.61,152.87 484.36,86.47 484.36,86.47
             484.36,86.47 535.94,86.47 535.94,86.47
             535.94,86.47 535.94,81.32 535.94,81.32
             535.94,81.32 474.22,81.32 474.22,81.32
             474.22,81.32 474.15,86.36 474.15,86.36 Z
           M 469.99,19.16
           C 469.99,19.16 469.99,151.66 469.99,151.66
             469.99,151.66 473.77,151.66 473.77,151.66
             473.77,151.66 473.77,32.81 473.77,32.81
             473.77,32.81 473.63,19.26 473.63,19.26
             473.63,19.26 469.99,19.16 469.99,19.16 Z
           M 487.93,18.43
           C 487.93,18.43 562.70,93.36 562.70,93.36
             562.70,93.36 559.17,96.89 559.17,96.89
             559.17,96.89 510.39,96.89 510.39,96.89
             510.39,96.89 566.23,152.85 566.23,152.85
             566.23,152.85 559.60,152.85 559.60,152.85
             559.60,152.85 501.62,94.75 501.62,94.75
             501.62,94.75 505.47,90.89 505.47,90.89
             505.47,90.89 552.75,90.89 552.75,90.89
             552.75,90.89 480.23,18.21 480.23,18.21
             480.23,18.21 487.93,18.43 487.93,18.43 Z
           M 324.27,151.61
           C 324.27,151.61 331.91,151.61 331.91,151.61
             331.91,151.61 454.33,28.93 454.33,28.93
             454.33,28.93 454.33,151.81 454.33,151.81
             454.33,151.81 460.11,151.81 460.11,151.81
             460.11,151.81 460.11,18.62 460.11,18.62
             460.11,18.62 456.58,18.62 456.58,18.62
             456.58,18.62 323.29,152.20 323.29,152.20
             323.29,152.20 324.27,151.61 324.27,151.61 Z
           M 225.47,14.69
           C 225.47,14.69 158.83,81.48 158.83,81.48
             158.83,81.48 230.18,151.61 230.18,151.61
             230.18,151.61 230.18,83.84 230.18,83.84
             230.18,83.84 225.08,83.84 225.08,83.84
             225.08,83.84 225.08,139.82 225.08,139.82
             225.08,139.82 166.77,81.38 166.77,81.38
             166.77,81.38 226.55,21.46 226.55,21.46
             226.55,21.46 226.55,13.51 226.55,13.51
             226.55,13.51 225.47,14.69 225.47,14.69 Z
           M 373.96,115.66
           C 373.96,115.66 409.49,151.27 409.49,151.27
             409.49,151.27 402.58,151.27 402.58,151.27
             402.58,151.27 370.41,119.02 370.41,119.02
             370.41,119.02 373.96,115.66 373.96,115.66 Z
           M 407.15,18.05
           C 407.15,18.05 338.36,87.00 338.36,87.00
             338.36,87.00 360.53,109.21 360.53,109.21
             360.53,109.21 364.52,105.21 364.52,105.21
             364.52,105.21 345.94,86.59 345.94,86.59
             345.94,86.59 414.38,18.00 414.38,18.00
             414.38,18.00 407.15,18.05 407.15,18.05 Z
           M 406.26,16.78
           C 406.26,16.78 336.30,86.90 336.30,86.90M 317.57,14.59
           C 317.57,14.59 248.96,83.35 248.96,83.35
             248.96,83.35 253.13,87.53 253.13,87.53
             253.13,87.53 319.81,87.53 319.81,87.53
             319.81,87.53 255.90,151.58 255.90,151.58
             255.90,151.58 263.43,151.58 263.43,151.58
             263.43,151.58 328.33,86.54 328.33,86.54
             328.33,86.54 323.77,81.97 323.77,81.97
             323.77,81.97 258.41,81.97 258.41,81.97
             258.41,81.97 325.64,14.59 325.64,14.59
             325.64,14.59 317.57,14.59 317.57,14.59 Z
           M 175.95,146.75
           C 175.95,146.75 178.98,152.01 178.98,152.01
             178.98,152.01 224.54,152.01 224.54,152.01
             224.54,152.01 218.88,146.34 218.88,146.34
             218.88,146.34 175.71,146.34 175.71,146.34
             175.71,146.34 175.95,146.75 175.95,146.75 Z
           M 134.93,76.79
           C 134.93,76.79 158.90,76.79 158.90,76.79
             158.90,76.79 153.82,81.88 153.82,81.88
             153.82,81.88 138.20,81.88 138.20,81.88
             138.20,81.88 134.93,76.79 134.93,76.79 Z
           M 98.52,13.14
           C 98.52,13.14 102.02,19.21 102.02,19.21
             102.02,19.21 215.61,19.21 215.61,19.21
             215.61,19.21 221.63,13.18 221.63,13.18
             221.63,13.18 98.52,13.14 98.52,13.14 Z
           M 235.59,14.35
           C 235.59,14.35 235.59,151.64 235.59,151.64
             235.59,151.64 240.65,151.64 240.65,151.64
             240.65,151.64 240.65,14.38 240.65,14.38
             240.65,14.38 235.59,14.35 235.59,14.35 Z
           M 168.79,150.04
           C 168.79,150.04 17.32,150.04 17.32,150.04
             17.32,150.04 93.05,20.55 93.05,20.55
             93.05,20.55 168.79,150.04 168.79,150.04 Z
           M -89.67,4.22
           C -89.67,4.22 -502.63,-146.86 -502.63,-146.86
             -502.63,-146.86 -165.60,-429.73 -165.60,-429.73
             -165.60,-429.73 -89.67,4.22 -89.67,4.22 Z" />
</svg>
